<svg viewBox="0 0 405 513" xmlns="http://www.w3.org/2000/svg" xml:space="preserve" style="fill-rule:evenodd;clip-rule:evenodd;stroke-linejoin:round;stroke-miterlimit:2">
    <path d="M0 0c26.382 10.491 47.527 61.698 58 86 3.501 8.602 6.779 17.29 10 26l1.695-2.316c19.788-26.603 44.777-47.06 74.68-61.309l2.181-1.04C149.539 45.959 151.676 45 155 45c.803 3.206 1.59 6.415 2.375 9.625l.672 2.68c3.386 13.943 4.33 27.478 4.265 41.757l-.006 2.613c-.083 20.762-3.138 39.336-8.803 59.32-.584 1.984-.584 1.984-.503 4.005l2.269-1.31c25.238-14.553 25.238-14.553 36.793-20.69l2.338-1.255C199.635 139 199.635 139 203 139c.636 53.332.636 53.332-3 74l-.536 3.136c-6.93 39.607-20.045 75.457-54.151 99.405-5.848 3.965-12.001 7.293-18.313 10.459l2.965.113c19.5.978 19.5.978 26.035 7.887 3.839 5.96 5.806 11.972 4.312 19.062-1.768 6.097-5.084 10.368-10.312 13.938-4.251 2.156-8.144 2.241-12.812 2.125l-2.1-.027A616.72 616.72 0 0 1 130 369l-.284 3.79c-.866 8.603-2.596 17.082-4.173 25.577l-1.043 5.655c-.728 3.94-1.459 7.878-2.192 11.816a5458.723 5458.723 0 0 0-2.773 15.056c-.714 3.891-1.436 7.78-2.16 11.669-.342 1.849-.682 3.698-1.02 5.547-3.682 20.162-8.72 40.199-26.014 53.131-11.743 7.932-24.244 11.378-38.361 11.277l-3.725.021c-3.331.014-6.661.011-9.992-.002-3.512-.01-7.024 0-10.536.006-5.894.007-11.787-.002-17.681-.022-6.781-.021-13.561-.014-20.342.008-5.858.018-11.716.02-17.573.01-3.483-.006-6.966-.007-10.449.006-3.888.014-7.775-.005-11.662-.027l-3.424.024c-15.844-.166-29.858-6.274-41.311-17.128-8.604-9.089-13.596-19.427-16.2-31.596l-.518-2.379c-1.898-8.811-3.58-17.662-5.239-26.521l-.992-5.268c-.684-3.637-1.366-7.275-2.046-10.913-.872-4.657-1.75-9.312-2.63-13.967-.681-3.607-1.358-7.214-2.033-10.822a3110.05 3110.05 0 0 0-.971-5.154c-.452-2.389-.898-4.778-1.343-7.168l-.406-2.127c-.652-3.546-1.053-6.893-.907-10.499l-3 .141c-14.282.473-14.282.473-20-4.141-4.728-4.557-7.344-9.144-8.031-15.715.075-5.496 1.95-10.51 4.781-15.16 6.529-6.166 13.374-7.18 22.062-7.687l2.1-.131c1.696-.106 3.392-.207 5.088-.307l-2.789-1.363c-27.623-13.878-49.775-37.826-59.859-67.282C-193.97 237.728-197.64 217.448-200 197l-.272-2.27c-.713-6.42-.859-12.751-.826-19.207l.005-3.185c.005-3.321.018-6.642.031-9.963l.013-6.801c.011-5.525.028-11.049.049-16.574 4.175.611 7.311 2.032 11.016 4.027l3.52 1.889 3.714 2.022 3.784 2.043c9.453 5.12 18.777 10.44 27.966 16.019l-.734-2.762a375.22 375.22 0 0 1-5.454-24.176l-.504-2.614c-1.561-8.327-2.459-16.541-2.546-25.014l-.03-2.39c-.024-2.536-.037-5.071-.044-7.606l-.009-2.624c-.015-18.312 2.325-35.17 7.321-52.814 20.73 3.628 40.502 19.613 56 33l1.688 1.458C-84.07 89.267-74.653 99.866-66 112l.803-2.142C-55.884 85.199-45.628 61.049-31 39l1.234-1.865c6.288-9.424 13.164-18.286 20.454-26.947l1.405-1.672C-5.386 5.546-2.8 2.708 0 0Z" style="fill:#7fc46d;fill-rule:nonzero" transform="translate(201.102)"/>
    <path d="M0 0c4.756 4.077 8.893 7.843 12.875 12.562l1.564 1.845C19.387 20.326 23.809 26.52 28 33l1.21 1.867C44.96 59.316 56.913 84.72 67 112l1.695-2.316c19.788-26.603 44.777-47.06 74.68-61.309l2.181-1.04C148.539 45.959 150.676 45 154 45c.803 3.206 1.59 6.415 2.375 9.625l.672 2.68c3.386 13.943 4.33 27.478 4.265 41.757l-.006 2.613c-.083 20.762-3.138 39.336-8.803 59.32-.584 1.984-.584 1.984-.503 4.005l2.269-1.31c25.238-14.553 25.238-14.553 36.793-20.69l2.338-1.255C198.635 139 198.635 139 202 139c.636 53.332.636 53.332-3 74l-.536 3.136c-6.912 39.502-19.989 75.429-54.017 99.337C100.031 345.509 69.504 328 0 328V0Z" style="fill:#66ad66;fill-rule:nonzero" transform="translate(202.102)"/>
    <path d="m0 0 2.99-.012 3.262.003 3.484-.009c3.186-.007 6.373-.01 9.559-.011 3.439-.001 6.877-.009 10.316-.016 7.516-.013 15.033-.019 22.549-.024L66.245-.08c13.003-.012 26.007-.023 39.01-.026l2.521-.001h2.527l5.069-.002h2.54c13.58-.004 27.159-.022 40.739-.045 13.948-.024 27.896-.036 41.844-.038 7.829 0 15.658-.006 23.487-.024 6.666-.016 13.333-.021 20-.013 3.399.004 6.799.003 10.198-.011 3.691-.012 7.381-.007 11.071.004l3.236-.024c7.517.049 13.831 1.179 20.331 5.079 4.611 4.874 6.948 10.591 7.188 17.312-.846 6.673-3.45 11.646-8.438 16.25-5.069 3.462-9.323 4.026-15.375 3.875l-2.099-.027a539.631 539.631 0 0 1-5.088-.098l-.284 3.79c-.866 8.604-2.596 17.082-4.173 25.578l-1.043 5.655a9442.13 9442.13 0 0 1-2.192 11.816 5107.08 5107.08 0 0 0-2.773 15.055c-.714 3.891-1.436 7.78-2.16 11.67-.343 1.848-.683 3.697-1.02 5.546-3.682 20.162-8.721 40.199-26.014 53.131-11.743 7.933-24.244 11.378-38.361 11.277l-3.725.021c-3.331.015-6.661.012-9.992-.001-3.512-.011-7.024-.001-10.536.005-5.894.008-11.787-.002-17.681-.021-6.781-.022-13.561-.015-20.342.007-5.858.018-11.716.021-17.574.01-3.482-.006-6.965-.007-10.448.007a1295.5 1295.5 0 0 1-11.663-.028l-3.423.025c-15.844-.167-29.858-6.275-41.311-17.129-8.604-9.089-13.596-19.426-16.2-31.596l-.518-2.379c-1.898-8.811-3.581-17.662-5.239-26.521l-.992-5.267c-.684-3.638-1.366-7.275-2.047-10.914-.871-4.656-1.749-9.311-2.629-13.966a6646.98 6646.98 0 0 1-2.033-10.823c-.323-1.718-.646-3.436-.972-5.153-.451-2.389-.897-4.779-1.342-7.169l-.406-2.127c-.653-3.545-1.054-6.892-.907-10.499l-3 .141c-14.282.474-14.282.474-20-4.141-4.728-4.557-7.344-9.144-8.031-15.714.075-5.497 1.95-10.51 4.781-15.161C-13.61 1.935-7.67.011 0 0Z" style="fill:#fdc27c;fill-rule:nonzero" transform="translate(66.096 326.869)"/>
    <path d="M0 0c.636 53.332.636 53.332-3 74l-.536 3.136c-6.912 39.502-19.989 75.429-54.017 99.337-18.718 12.657-18.718 12.657-28.287 12.647l-3.022.004-3.311-.01h-3.489c-3.814-.001-7.629-.009-11.443-.016l-7.924-.005c-6.248-.003-12.495-.011-18.742-.021-7.113-.011-14.225-.017-21.337-.022-14.631-.01-29.261-.028-43.892-.05.311-1.439.625-2.877.939-4.315l.529-2.426c.638-2.709 1.51-5.245 2.528-7.833l1.175-2.988 1.267-3.126 1.34-3.309c9.541-23.164 21.447-45.216 38.222-64.003l1.332-1.494c7.516-8.398 15.054-16.597 24.043-23.444l2.175-1.658C-115.061 66.637-104.001 59.855-93 53l2.929-1.832c9.817-6.135 19.68-12.185 29.649-18.07 2.583-1.552 5.078-3.206 7.57-4.899 5.588-3.751 11.392-7.1 17.227-10.449l3.436-1.975c6.992-3.998 14.015-7.929 21.127-11.713L-8.7 2.794C-3.366 0-3.366 0 0 0Z" style="fill:#7fc46d;fill-rule:nonzero" transform="translate(404.102 139)"/>
    <path d="M0 0c4.149.61 7.264 2.007 10.945 3.992l3.49 1.873 3.69 2.01 3.769 2.04c7.489 4.064 14.953 8.177 22.356 12.397l2.415 1.361c1.813 1.05 3.581 2.18 5.335 3.327v2l1.93.664c4.295 1.869 8.196 4.282 12.195 6.711l2.678 1.618c8.294 5.028 16.497 10.192 24.674 15.408 2.695 1.708 5.403 3.395 8.113 5.079C112.209 65.108 122.492 71.838 132 80l1.551 1.33c30.386 26.356 53.647 63.623 64.064 102.501l.793 2.949L199 189c-15.109.188-30.217.328-45.327.414-7.017.042-14.034.097-21.051.19-6.782.088-13.564.134-20.346.155-2.578.015-5.154.043-7.731.087-15.232.246-26.66-.348-39.545-8.846a1517.542 1517.542 0 0 0-5.688-3.25c-6.252-4.112-11.577-9.229-16.93-14.424a117.418 117.418 0 0 0-3.374-3.092C11.59 135.309 5.008 92.734 1 58l-.272-2.27c-.713-6.42-.859-12.751-.826-19.207l.005-3.185c.005-3.321.018-6.642.031-9.963l.013-6.801C-.038 11.049-.021 5.525 0 0Z" style="fill:#66ad66;fill-rule:nonzero" transform="translate(.102 139)"/>
    <path d="m0 0 2.99-.012 3.262.003 3.484-.009c3.186-.007 6.373-.01 9.559-.011 3.439-.001 6.877-.009 10.316-.016 7.516-.013 15.033-.019 22.549-.024L66.245-.08c13.003-.012 26.007-.023 39.01-.026l2.521-.001h2.527l5.069-.002h2.54c13.58-.004 27.159-.022 40.739-.045 13.948-.024 27.896-.036 41.844-.038 7.829 0 15.658-.006 23.487-.024 6.666-.016 13.333-.021 20-.013 3.399.004 6.799.003 10.198-.011 3.691-.012 7.381-.007 11.071.004l3.236-.024c7.517.049 13.831 1.179 20.331 5.079 4.611 4.874 6.948 10.591 7.188 17.312-.846 6.673-3.45 11.646-8.438 16.25-5.069 3.462-9.323 4.026-15.375 3.875l-2.099-.027a539.631 539.631 0 0 1-5.088-.098l-.284 3.79c-.866 8.604-2.596 17.082-4.173 25.578l-1.043 5.655a9442.13 9442.13 0 0 1-2.192 11.816 5107.08 5107.08 0 0 0-2.773 15.055c-.714 3.891-1.436 7.78-2.16 11.67-.343 1.848-.683 3.697-1.02 5.546-3.682 20.162-8.721 40.199-26.014 53.131-11.948 8.071-24.503 11.406-38.861 11.15l-3.711-.017c-3.861-.022-7.721-.072-11.582-.124-2.638-.02-5.277-.038-7.916-.054-6.424-.044-12.847-.111-19.271-.196v-1l2.605-.41c16.236-2.957 28.546-10.797 38.707-23.84 7.65-11.296 10.019-23.84 12.438-37a3435.06 3435.06 0 0 0 4.25-22.75l1.208-6.548a9426.322 9426.322 0 0 0 4.822-26.316l.556-3.057c.341-1.878.681-3.757 1.019-5.635l.469-2.574.397-2.203a315.27 315.27 0 0 1 1.562-7.333l.548-2.459.419-1.875-3.429.012c-27.534.088-55.067.154-82.601.196-13.315.02-26.63.048-39.945.094-11.606.04-23.211.066-34.816.075-6.145.005-12.29.017-18.435.046-5.785.028-11.57.036-17.355.03-2.122.001-4.244.009-6.366.024-2.9.02-5.8.015-8.701.004l-2.535.036c-6.274-.064-11.69-1.557-16.347-5.964-4.374-5.047-6.563-9.797-6.47-16.553 1.181-6.464 3.06-12.235 8.637-16.148C-10.28.877-5.855.009 0 0Z" style="fill:#f4a85a;fill-rule:nonzero" transform="translate(66.096 326.869)"/>
    <path d="m0 0 3 1c.677 1.996 1.34 3.998 2 6 1.858 3.644 3.928 7.161 6 10.688l1.851 3.16c16.006 26.976 34.071 53.186 54.481 77.011 2.53 2.96 4.977 5.982 7.418 9.016a117.014 117.014 0 0 0 9.582 10.461c1.759 1.754 3.367 3.588 4.98 5.476 6.714 7.746 13.99 14.607 22 20.993 2.499 2.041 4.839 4.172 7.188 6.383 17.288 15.674 37.504 27.829 58.5 37.812v1c-12.24.186-24.48.328-36.722.414-5.685.042-11.37.098-17.055.19-5.499.087-10.996.134-16.495.155a450.28 450.28 0 0 0-6.258.087c-13.946.279-23.592-1.418-35.47-8.846a7171.84 7171.84 0 0 0-3.116-1.778c-7.408-4.24-13.415-9.989-19.502-15.896a117.418 117.418 0 0 0-3.374-3.092C11.59 135.309 5.008 92.734 1 58l-.272-2.27c-.713-6.42-.859-12.751-.826-19.207l.005-3.185c.005-3.321.018-6.642.031-9.963l.013-6.801C-.038 11.049-.021 5.525 0 0Z" style="fill:#80c46d;fill-rule:nonzero" transform="translate(.102 139)"/>
    <path d="M0 0h1c.636 53.332.636 53.332-3 74l-.536 3.136c-6.912 39.502-19.989 75.429-54.017 99.337-18.719 12.659-18.719 12.659-27.452 12.647l-2.461.004-2.687-.01h-2.839c-3.1-.001-6.201-.009-9.301-.016l-6.444-.005c-5.657-.003-11.314-.013-16.971-.024-5.771-.011-11.542-.015-17.313-.02A38480.32 38480.32 0 0 1-176 189c2.866-2.23 5.672-3.864 8.972-5.395 22.235-10.38 42.551-26.15 60.274-43a180.415 180.415 0 0 1 6.942-6.23c6.845-5.935 13.155-12.444 19.042-19.324 2.008-2.327 4.075-4.593 6.145-6.863C-69.898 102.936-65.4 97.527-61 92l1.535-1.921C-38.398 63.627-20.094 35.246-3.439 5.84l1.322-2.317 1.168-2.065L0 0Z" style="fill:#66ad66;fill-rule:nonzero" transform="translate(403.102 139)"/>
    <path d="m0 0 2 1a8280.842 8280.842 0 0 1-20 41.5 6132.972 6132.972 0 0 0-14 29 6419.02 6419.02 0 0 1-16.05 33.218c-3.2 6.589-6.389 13.184-9.532 19.802l-1.662 3.492c-1.017 2.14-2.03 4.282-3.039 6.426l-1.362 2.863-1.167 2.474c-1.21 2.265-2.594 4.215-4.188 6.225l-.364-2.493c-5.059-35.817-5.059-35.817-14.948-70.503-.832-3.631-.544-4.808 1.312-8.004a112.471 112.471 0 0 1 4.938-6.062l1.476-1.711c1.52-1.75 3.051-3.49 4.586-5.227l1.415-1.61C-52.772 30.196-31.778 14.927-7.562 3.312l2.206-1.065C-3.6 1.432-1.802.707 0 0Z" style="fill:#7fc46d;fill-rule:nonzero" transform="translate(353.102 45)"/>
    <path d="M0 0c4.153.545 7.405 1.457 11.125 3.371l2.87 1.475L17 6.438l3.106 1.635C28.268 12.451 35.736 17.272 43 23l2.867 2.234C57.161 34.257 67.579 44.042 77 55a7246.42 7246.42 0 0 0 2.5 2.887l2.25 2.801 1.984 2.449c2.999 6.783-.394 14.62-2.422 21.363-2.817 9.818-4.818 19.708-6.624 29.75l-.39 2.147C72.881 124.236 71.605 132.05 71 140h-2l-.933-1.904a100083.624 100083.624 0 0 0-13.355-27.245c-6.169-12.589-12.344-25.174-18.635-37.702-1.753-3.498-3.497-7.001-5.242-10.503-2.046-4.107-4.095-8.212-6.143-12.317a9129.792 9129.792 0 0 1-3.123-6.267C15.857 32.593 10.125 21.146 4.026 9.876L2.859 7.697l-1.02-1.883C.953 3.899.447 2.058 0 0Z" style="fill:#66ad66;fill-rule:nonzero" transform="translate(50.102 46)"/>
    <path d="m0 0 2.457-.062c6.965-.045 12.981 1.4 18.981 5 4.61 4.874 6.947 10.591 7.187 17.312-.845 6.673-3.449 11.646-8.437 16.25-5.465 3.732-9.937 4.028-16.364 3.945l-2.248-.006c-2.755-.01-5.509-.038-8.264-.064l-18.687-.125v-41C-7.346.048-7.346.048 0 0Z" style="fill:#ea8f3d;fill-rule:nonzero" transform="translate(333.477 326.75)"/>
</svg>
