<svg width="96" height="21" fill="none" xmlns="http://www.w3.org/2000/svg">
    <path d="M0 20.364V0h8.79c1.511 0 2.834.298 3.967.895a6.495 6.495 0 0 1 2.645 2.516c.63 1.08.945 2.343.945 3.788 0 1.458-.325 2.721-.975 3.788-.643 1.068-1.548 1.89-2.714 2.466-1.16.577-2.516.865-4.067.865H3.34v-4.295h4.136c.65 0 1.203-.113 1.66-.338.465-.232.82-.56 1.065-.985.252-.424.377-.924.377-1.501 0-.583-.125-1.08-.377-1.492a2.37 2.37 0 0 0-1.064-.954c-.458-.226-1.011-.338-1.66-.338h-1.95v15.949H0ZM23.943 0v20.364h-5.489V0h5.49Zm7.052 20.602c-.974 0-1.836-.159-2.585-.477a3.886 3.886 0 0 1-1.75-1.472c-.424-.656-.636-1.491-.636-2.505 0-.835.142-1.548.427-2.138a3.852 3.852 0 0 1 1.194-1.462 5.634 5.634 0 0 1 1.78-.865 10.79 10.79 0 0 1 2.207-.387 21.621 21.621 0 0 0 2.058-.24c.524-.099.902-.234 1.134-.407a.849.849 0 0 0 .348-.706v-.04c0-.397-.153-.702-.458-.914-.305-.212-.696-.319-1.173-.319-.524 0-.951.116-1.283.348-.325.226-.52.574-.587 1.044h-5.05a5.205 5.205 0 0 1 .884-2.565c.53-.789 1.303-1.418 2.317-1.889 1.014-.477 2.28-.716 3.798-.716 1.094 0 2.075.13 2.944.388.868.252 1.607.606 2.217 1.064.61.45 1.074.98 1.392 1.59.325.604.487 1.26.487 1.97v10.46h-5.13v-2.148h-.12c-.305.57-.676 1.03-1.113 1.382-.431.351-.925.607-1.482.766-.55.159-1.157.238-1.82.238Zm1.79-3.46a2.71 2.71 0 0 0 1.174-.258 2.26 2.26 0 0 0 .904-.746c.232-.325.348-.72.348-1.184v-1.272c-.145.06-.301.116-.467.169a9.508 9.508 0 0 1-1.094.278c-.199.04-.407.077-.626.11-.424.066-.773.175-1.044.328a1.546 1.546 0 0 0-.597.547c-.126.212-.189.45-.189.715 0 .425.15.75.448.975.298.225.68.338 1.143.338Zm15.986-5.37v8.592h-5.488V5.09h5.21v2.903h.159a4.326 4.326 0 0 1 1.75-2.277c.842-.55 1.823-.825 2.943-.825 1.08 0 2.019.249 2.814.746a4.955 4.955 0 0 1 1.86 2.028c.444.862.662 1.846.656 2.953v9.745h-5.489v-8.591c.007-.756-.185-1.35-.577-1.78-.384-.431-.921-.646-1.61-.646-.451 0-.846.099-1.184.298-.331.192-.586.47-.765.835-.18.358-.272.789-.279 1.293Zm21.721-6.681v3.977H60.43V5.091h10.062ZM62.38 1.43h5.488v14.02c0 .213.037.392.11.538.072.139.185.245.338.318.152.066.348.1.586.1.166 0 .358-.02.577-.06.225-.04.391-.073.497-.1l.796 3.858c-.246.073-.597.162-1.054.269-.451.106-.988.175-1.611.208-1.26.067-2.317-.063-3.172-.387-.855-.332-1.498-.852-1.929-1.561-.43-.71-.64-1.598-.626-2.665V1.432Zm17.547 19.211c-1.657 0-3.076-.328-4.256-.984a6.77 6.77 0 0 1-2.714-2.765c-.63-1.186-.945-2.562-.945-4.126 0-1.564.315-2.936.945-4.116a6.69 6.69 0 0 1 2.714-2.765c1.18-.663 2.599-.994 4.256-.994s3.075.331 4.255.994a6.691 6.691 0 0 1 2.715 2.765c.63 1.18.945 2.552.945 4.116 0 1.564-.315 2.94-.945 4.127a6.77 6.77 0 0 1-2.715 2.764c-1.18.656-2.598.984-4.255.984Zm.04-4.057c.464 0 .865-.155 1.203-.467.338-.312.6-.756.785-1.332.186-.577.279-1.263.279-2.059 0-.802-.093-1.488-.279-2.058-.185-.577-.447-1.02-.785-1.332a1.716 1.716 0 0 0-1.203-.468c-.491 0-.912.156-1.263.468-.352.311-.62.755-.806 1.332-.185.57-.278 1.256-.278 2.058 0 .796.093 1.482.278 2.059.186.576.454 1.02.806 1.332.351.312.772.467 1.263.467Zm13.085 4.097a2.732 2.732 0 0 1-1.979-.806 2.66 2.66 0 0 1-.805-1.978 2.593 2.593 0 0 1 .805-1.94 2.733 2.733 0 0 1 1.979-.805c.729 0 1.372.269 1.929.806.563.537.848 1.183.855 1.939a2.678 2.678 0 0 1-.408 1.412 3 3 0 0 1-1.014 1.004 2.642 2.642 0 0 1-1.362.368Z" fill="#fff" fill-opacity=".75"/>
</svg>
